# Blender 3.3.1
# www.blender.org
mtllib untitled.mtl
o Car_11.001
v -0.842067 -0.212989 -0.259558
v -0.842067 0.212989 -0.259558
v -0.842067 -0.212989 0.259558
v -0.842067 0.212989 0.259558
v 0.842067 -0.212989 0.259558
v 0.842067 0.212989 0.259558
v 0.842067 -0.212989 -0.259558
v 0.842067 0.212989 -0.259558
v 0.963651 -0.212989 0.259558
v 0.861830 0.212989 0.259558
v 0.963651 -0.212988 -0.259558
v 0.861830 0.212989 -0.259558
v 0.842067 -0.101494 0.259558
v 0.842067 -0.101494 -0.259558
v 0.963651 -0.101494 0.259558
v 0.963651 -0.101494 -0.259558
v -0.842067 -0.101494 0.259558
v -0.842067 -0.101494 -0.259558
vn -1.0000 -0.0000 -0.0000
vn -0.0000 -0.0000 1.0000
vn 1.0000 -0.0000 -0.0000
vn -0.0000 -0.0000 -1.0000
vn -0.0000 1.0000 -0.0000
vn -0.0000 -1.0000 -0.0000
vn 0.9514 0.3080 -0.0000
vt 0.008708 0.747898
vt 0.789648 0.050436
vt 0.991292 0.747898
vt 0.807064 0.747898
vt 0.745613 0.486382
vt 0.789648 0.249582
vt 0.991292 0.990587
vt 0.008708 0.990587
vt 0.008708 0.268409
vt 0.008708 0.467555
vt 0.807064 0.990587
vt 0.745613 0.729071
vt 0.737065 0.990587
vt 0.737065 0.268409
vt 0.737065 0.467555
vt 0.017255 0.729071
vt 0.061291 0.050436
vt 0.737065 0.747898
vt 0.061291 0.249582
vt 0.017255 0.486382
vt 0.789648 0.990587
vt 0.789648 0.268409
vt 0.763029 0.729071
vt 0.951869 0.729071
vt 0.008708 0.729071
vt 0.745613 0.467555
vt 0.763029 0.486382
vt 0.789648 0.747898
vt 0.008708 0.050436
vt 0.052744 0.249582
vt 0.008708 0.486382
vt 0.951869 0.486382
vt 0.737065 0.320533
vt 0.061291 0.102560
vt 0.810659 0.729071
vt 0.789648 0.320533
vt 0.810659 0.486382
vt 0.008708 0.102560
vt 0.943072 0.990587
vt 0.008708 0.320533
vt 0.943072 0.747898
vt 0.789648 0.102560
s 1
usemtl CAR_11.002
f 4/11/1 2/4/1 18/41/1
f 6/15/2 4/10/2 17/40/2
f 16/37/3 15/35/3 9/23/3
f 18/42/4 14/34/4 7/17/4
f 6/16/5 8/20/5 2/5/5
f 3/8/6 1/1/6 7/18/6
f 11/28/6 9/21/6 5/13/6
f 8/19/4 12/30/4 16/38/4
f 10/25/5 12/31/5 8/20/5
f 5/14/2 9/22/2 15/36/2
f 1/3/1 3/7/1 17/39/1
f 2/6/4 8/19/4 14/34/4
f 12/32/7 10/24/7 15/35/7
f 11/29/4 7/17/4 14/34/4
f 10/26/2 6/15/2 13/33/2
f 3/9/2 5/14/2 13/33/2
f 17/39/1 4/11/1 18/41/1
f 13/33/2 6/15/2 17/40/2
f 11/27/3 16/37/3 9/23/3
f 1/2/4 18/42/4 7/17/4
f 4/12/5 6/16/5 2/5/5
f 5/13/6 3/8/6 7/18/6
f 7/18/6 11/28/6 5/13/6
f 14/34/4 8/19/4 16/38/4
f 6/16/5 10/25/5 8/20/5
f 13/33/2 5/14/2 15/36/2
f 18/41/1 1/3/1 17/39/1
f 18/42/4 2/6/4 14/34/4
f 16/37/7 12/32/7 15/35/7
f 16/38/4 11/29/4 14/34/4
f 15/36/2 10/26/2 13/33/2
f 17/40/2 3/9/2 13/33/2
