# Blender 3.3.1
# www.blender.org
mtllib untitled.mtl
o wheel
v 0.000000 -0.000000 0.023738
v 0.000000 -0.000000 -0.023739
v -0.075371 -0.000000 0.023738
v -0.075371 -0.000000 -0.023739
v -0.070826 0.024362 0.023738
v -0.070826 0.024362 -0.023739
v -0.057738 0.045785 0.023738
v -0.057738 0.045785 -0.023739
v -0.037686 0.061686 0.023738
v -0.037686 0.061686 -0.023739
v -0.013088 0.070147 0.023739
v -0.013088 0.070147 -0.023739
v 0.013088 0.070147 0.023739
v 0.013088 0.070147 -0.023739
v 0.037686 0.061686 0.023739
v 0.037686 0.061686 -0.023739
v 0.057738 0.045785 0.023739
v 0.057738 0.045785 -0.023739
v 0.070826 0.024362 0.023739
v 0.070826 0.024362 -0.023739
v 0.075372 -0.000000 0.023739
v 0.075372 -0.000000 -0.023739
v 0.070826 -0.024362 0.023738
v 0.070826 -0.024362 -0.023739
v 0.057738 -0.045785 0.023738
v 0.057738 -0.045785 -0.023739
v 0.037686 -0.061686 0.023738
v 0.037686 -0.061686 -0.023739
v 0.013088 -0.070147 0.023738
v 0.013088 -0.070147 -0.023739
v -0.013088 -0.070147 0.023738
v -0.013088 -0.070147 -0.023739
v -0.037686 -0.061686 0.023738
v -0.037686 -0.061686 -0.023739
v -0.057738 -0.045785 0.023738
v -0.057738 -0.045785 -0.023739
v -0.070826 -0.024362 0.023738
v -0.070826 -0.024362 -0.023739
vn -0.0000 -0.0000 1.0000
vn -0.9830 0.1834 -0.0000
vn -0.0000 -0.0000 -1.0000
vn -0.8534 0.5213 -0.0000
vn -0.6213 0.7835 -0.0000
vn -0.3253 0.9456 -0.0000
vn -0.0000 1.0000 -0.0000
vn 0.3253 0.9456 -0.0000
vn 0.6213 0.7835 -0.0000
vn 0.8534 0.5213 -0.0000
vn 0.9830 0.1834 -0.0000
vn 0.9830 -0.1834 -0.0000
vn 0.8534 -0.5213 -0.0000
vn 0.6213 -0.7835 -0.0000
vn 0.3253 -0.9456 -0.0000
vn -0.0000 -1.0000 -0.0000
vn -0.3253 -0.9456 -0.0000
vn -0.6213 -0.7835 -0.0000
vn -0.8534 -0.5213 -0.0000
vn -0.9830 -0.1834 -0.0000
vt 0.839661 0.216788
vt 0.839661 0.132373
vt 0.807064 0.216788
vt 0.910532 0.124145
vt 0.872258 0.132373
vt 0.910532 0.101949
vt 0.809030 0.228177
vt 0.899814 0.124145
vt 0.870292 0.143763
vt 0.899814 0.101949
vt 0.814691 0.238193
vt 0.889674 0.124145
vt 0.286428 0.031609
vt 0.286428 0.009413
vt 0.864632 0.153778
vt 0.889674 0.101949
vt 0.823363 0.245627
vt 0.279042 0.031609
vt 0.855960 0.161212
vt 0.279042 0.009413
vt 0.834001 0.249582
vt 0.269175 0.031609
vt 0.845322 0.165167
vt 0.269175 0.009413
vt 0.845322 0.249582
vt 0.258017 0.031609
vt 0.834001 0.165167
vt 0.258017 0.009413
vt 0.855960 0.245627
vt 0.246913 0.031609
vt 0.823363 0.161212
vt 0.246913 0.009413
vt 0.864632 0.238193
vt 0.237204 0.031609
vt 0.814691 0.153778
vt 0.237204 0.009413
vt 0.870292 0.228177
vt 0.230060 0.031609
vt 0.752947 0.031609
vt 0.752947 0.009413
vt 0.809030 0.143763
vt 0.230060 0.009413
vt 0.872258 0.216788
vt 0.742944 0.031609
vt 0.807064 0.132373
vt 0.742944 0.009413
vt 0.870292 0.205399
vt 0.732226 0.031609
vt 0.809030 0.120984
vt 0.732226 0.009413
vt 0.864632 0.195383
vt 0.722086 0.031609
vt 0.212644 0.031609
vt 0.212644 0.009413
vt 0.814691 0.110968
vt 0.722086 0.009413
vt 0.855960 0.187950
vt 0.205258 0.031609
vt 0.823363 0.103535
vt 0.205258 0.009413
vt 0.845322 0.183994
vt 0.195391 0.031609
vt 0.834001 0.099579
vt 0.195391 0.009413
vt 0.834001 0.183994
vt 0.184233 0.031609
vt 0.845322 0.099579
vt 0.184233 0.009413
vt 0.823363 0.187950
vt 0.173129 0.031609
vt 0.855960 0.103535
vt 0.173129 0.009413
vt 0.814691 0.195383
vt 0.163420 0.031609
vt 0.864632 0.110968
vt 0.163420 0.009413
vt 0.809030 0.205399
vt 0.156276 0.031609
vt 0.920535 0.124145
vt 0.920535 0.101949
vt 0.870292 0.120984
vt 0.156276 0.009413
s 1
usemtl CAR_11.002
f 5/7/1 3/3/1 1/1/1
f 6/10/2 4/6/2 3/4/2
f 6/9/3 2/2/3 4/5/3
f 7/11/1 5/7/1 1/1/1
f 8/16/4 6/10/4 5/8/4
f 8/15/3 2/2/3 6/9/3
f 9/17/1 7/11/1 1/1/1
f 10/20/5 8/14/5 7/13/5
f 10/19/3 2/2/3 8/15/3
f 11/21/1 9/17/1 1/1/1
f 12/24/6 10/20/6 9/18/6
f 12/23/3 2/2/3 10/19/3
f 13/25/1 11/21/1 1/1/1
f 14/28/7 12/24/7 11/22/7
f 14/27/3 2/2/3 12/23/3
f 15/29/1 13/25/1 1/1/1
f 16/32/8 14/28/8 13/26/8
f 16/31/3 2/2/3 14/27/3
f 17/33/1 15/29/1 1/1/1
f 18/36/9 16/32/9 15/30/9
f 18/35/3 2/2/3 16/31/3
f 19/37/1 17/33/1 1/1/1
f 20/42/10 18/36/10 17/34/10
f 20/41/3 2/2/3 18/35/3
f 21/43/1 19/37/1 1/1/1
f 22/46/11 20/40/11 19/39/11
f 22/45/3 2/2/3 20/41/3
f 23/47/1 21/43/1 1/1/1
f 24/50/12 22/46/12 21/44/12
f 24/49/3 2/2/3 22/45/3
f 25/51/1 23/47/1 1/1/1
f 26/56/13 24/50/13 23/48/13
f 26/55/3 2/2/3 24/49/3
f 27/57/1 25/51/1 1/1/1
f 28/60/14 26/54/14 25/53/14
f 28/59/3 2/2/3 26/55/3
f 29/61/1 27/57/1 1/1/1
f 30/64/15 28/60/15 27/58/15
f 30/63/3 2/2/3 28/59/3
f 31/65/1 29/61/1 1/1/1
f 32/68/16 30/64/16 29/62/16
f 32/67/3 2/2/3 30/63/3
f 33/69/1 31/65/1 1/1/1
f 34/72/17 32/68/17 31/66/17
f 34/71/3 2/2/3 32/67/3
f 35/73/1 33/69/1 1/1/1
f 36/76/18 34/72/18 33/70/18
f 36/75/3 2/2/3 34/71/3
f 37/77/1 35/73/1 1/1/1
f 38/82/19 36/76/19 35/74/19
f 38/81/3 2/2/3 36/75/3
f 3/3/1 37/77/1 1/1/1
f 4/6/20 38/80/20 37/79/20
f 4/5/3 2/2/3 38/81/3
f 5/8/2 6/10/2 3/4/2
f 7/12/4 8/16/4 5/8/4
f 9/18/5 10/20/5 7/13/5
f 11/22/6 12/24/6 9/18/6
f 13/26/7 14/28/7 11/22/7
f 15/30/8 16/32/8 13/26/8
f 17/34/9 18/36/9 15/30/9
f 19/38/10 20/42/10 17/34/10
f 21/44/11 22/46/11 19/39/11
f 23/48/12 24/50/12 21/44/12
f 25/52/13 26/56/13 23/48/13
f 27/58/14 28/60/14 25/53/14
f 29/62/15 30/64/15 27/58/15
f 31/66/16 32/68/16 29/62/16
f 33/70/17 34/72/17 31/66/17
f 35/74/18 36/76/18 33/70/18
f 37/78/19 38/82/19 35/74/19
f 3/4/20 4/6/20 37/79/20
